<svg width="16" height="16" viewBox="0 0 16 16" fill="none" xmlns="http://www.w3.org/2000/svg">
<g clip-path="url(#clip0_4_275)">
<path d="M8.0003 15.9999C12.4185 15.9999 16.0002 12.4182 16.0002 7.99993C16.0002 3.58169 12.4185 0 8.0003 0C3.58206 0 0.000366211 3.58169 0.000366211 7.99993C0.000366211 12.4182 3.58206 15.9999 8.0003 15.9999Z" fill="#050510"/>
<path d="M12.9004 5.74925C12.5576 5.90127 12.1888 6.00408 11.8021 6.05C12.1969 5.81342 12.5 5.43908 12.643 4.99229C12.2735 5.21148 11.8641 5.37049 11.4287 5.45619C11.0799 5.0847 10.5829 4.85254 10.0326 4.85254C8.97675 4.85254 8.1204 5.70889 8.1204 6.76475C8.1204 6.91463 8.13737 7.06051 8.17017 7.20055C6.58096 7.12084 5.17187 6.3596 4.22867 5.20235C4.0641 5.48471 3.9697 5.81342 3.9697 6.1638C3.9697 6.82707 4.30753 7.41261 4.82035 7.75543C4.50704 7.74559 4.21199 7.6596 3.9543 7.516C3.95415 7.52413 3.95415 7.53225 3.95415 7.54024C3.95415 8.46675 4.61357 9.23954 5.48817 9.41509C5.32788 9.45901 5.15861 9.48225 4.98449 9.48225C4.86099 9.48225 4.74134 9.47042 4.62469 9.44817C4.86798 10.2077 5.57402 10.7606 6.41098 10.7761C5.75641 11.2891 4.93201 11.5947 4.03587 11.5947C3.88185 11.5947 3.72926 11.5857 3.57996 11.5679C4.42575 12.1106 5.43113 12.4271 6.51094 12.4271C10.0282 12.4271 11.9517 9.51334 11.9517 6.98622C11.9517 6.90336 11.9498 6.82079 11.9461 6.73894C12.32 6.46941 12.6442 6.13272 12.9004 5.74925Z" fill="white"/>
</g>
<defs>
<clipPath id="clip0_4_275">
<rect width="16" height="16" fill="white"/>
</clipPath>
</defs>
</svg>
